<svg xmlns="http://www.w3.org/2000/svg" version="1.1" xmlns:xlink="http://www.w3.org/1999/xlink" xmlns:svgjs="http://svgjs.dev/svgjs" viewBox="0 0 800 800" opacity="0.31" width="800" height="800"><g stroke-width="0.5" stroke="hsla(154, 55%, 60%, 1.00)" fill="none"><rect width="72.72727272727273" height="114.28571428571429" x="0" y="0" opacity="0.15"></rect><circle r="3.75" cx="0" cy="0" fill="hsla(154, 55%, 60%, 1.00)" stroke="none"></circle><rect width="72.72727272727273" height="114.28571428571429" x="72.72727272727273" y="0" opacity="0.15"></rect><circle r="3.75" cx="72.72727272727273" cy="0" fill="hsla(154, 55%, 60%, 1.00)" stroke="none"></circle><rect width="72.72727272727273" height="114.28571428571429" x="145.45454545454547" y="0" opacity="0.15"></rect><circle r="3.75" cx="145.45454545454547" cy="0" fill="hsla(154, 55%, 60%, 1.00)" stroke="none"></circle><rect width="72.72727272727273" height="114.28571428571429" x="218.1818181818182" y="0" opacity="0.15"></rect><circle r="3.75" cx="218.1818181818182" cy="0" fill="hsla(154, 55%, 60%, 1.00)" stroke="none"></circle><rect width="72.72727272727273" height="114.28571428571429" x="290.90909090909093" y="0" opacity="0.15"></rect><circle r="3.75" cx="290.90909090909093" cy="0" fill="hsla(154, 55%, 60%, 1.00)" stroke="none"></circle><rect width="72.72727272727273" height="114.28571428571429" x="363.6363636363637" y="0" opacity="0.15"></rect><circle r="3.75" cx="363.6363636363637" cy="0" fill="hsla(154, 55%, 60%, 1.00)" stroke="none"></circle><rect width="72.72727272727273" height="114.28571428571429" x="436.36363636363643" y="0" opacity="0.15"></rect><circle r="3.75" cx="436.36363636363643" cy="0" fill="hsla(154, 55%, 60%, 1.00)" stroke="none"></circle><rect width="72.72727272727273" height="114.28571428571429" x="509.0909090909092" y="0" opacity="0.15"></rect><circle r="3.75" cx="509.0909090909092" cy="0" fill="hsla(154, 55%, 60%, 1.00)" stroke="none"></circle><rect width="72.72727272727273" height="114.28571428571429" x="581.8181818181819" y="0" opacity="0.15"></rect><circle r="3.75" cx="581.8181818181819" cy="0" fill="hsla(154, 55%, 60%, 1.00)" stroke="none"></circle><rect width="72.72727272727273" height="114.28571428571429" x="654.5454545454546" y="0" opacity="0.15"></rect><circle r="3.75" cx="654.5454545454546" cy="0" fill="hsla(154, 55%, 60%, 1.00)" stroke="none"></circle><rect width="72.72727272727273" height="114.28571428571429" x="727.2727272727274" y="0" opacity="0.15"></rect><circle r="3.75" cx="727.2727272727274" cy="0" fill="hsla(154, 55%, 60%, 1.00)" stroke="none"></circle><rect width="72.72727272727273" height="114.28571428571429" x="800.0000000000001" y="0" opacity="0.15"></rect><circle r="3.75" cx="800.0000000000001" cy="0" fill="hsla(154, 55%, 60%, 1.00)" stroke="none"></circle><rect width="72.72727272727273" height="114.28571428571429" x="0" y="114.28571428571429" opacity="0.15"></rect><circle r="3.75" cx="0" cy="114.28571428571429" fill="hsla(154, 55%, 60%, 1.00)" stroke="none"></circle><rect width="72.72727272727273" height="114.28571428571429" x="72.72727272727273" y="114.28571428571429" opacity="0.15"></rect><circle r="3.75" cx="72.72727272727273" cy="114.28571428571429" fill="hsla(154, 55%, 60%, 1.00)" stroke="none"></circle><rect width="72.72727272727273" height="114.28571428571429" x="145.45454545454547" y="114.28571428571429" opacity="0.15"></rect><circle r="3.75" cx="145.45454545454547" cy="114.28571428571429" fill="hsla(154, 55%, 60%, 1.00)" stroke="none"></circle><rect width="72.72727272727273" height="114.28571428571429" x="218.1818181818182" y="114.28571428571429" opacity="0.15"></rect><circle r="3.75" cx="218.1818181818182" cy="114.28571428571429" fill="hsla(154, 55%, 60%, 1.00)" stroke="none"></circle><rect width="72.72727272727273" height="114.28571428571429" x="290.90909090909093" y="114.28571428571429" opacity="0.15"></rect><circle r="3.75" cx="290.90909090909093" cy="114.28571428571429" fill="hsla(154, 55%, 60%, 1.00)" stroke="none"></circle><rect width="72.72727272727273" height="114.28571428571429" x="363.6363636363637" y="114.28571428571429" opacity="0.15"></rect><circle r="3.75" cx="363.6363636363637" cy="114.28571428571429" fill="hsla(154, 55%, 60%, 1.00)" stroke="none"></circle><rect width="72.72727272727273" height="114.28571428571429" x="436.36363636363643" y="114.28571428571429" opacity="0.15"></rect><circle r="3.75" cx="436.36363636363643" cy="114.28571428571429" fill="hsla(154, 55%, 60%, 1.00)" stroke="none"></circle><rect width="72.72727272727273" height="114.28571428571429" x="509.0909090909092" y="114.28571428571429" opacity="0.15"></rect><circle r="3.75" cx="509.0909090909092" cy="114.28571428571429" fill="hsla(154, 55%, 60%, 1.00)" stroke="none"></circle><rect width="72.72727272727273" height="114.28571428571429" x="581.8181818181819" y="114.28571428571429" opacity="0.15"></rect><circle r="3.75" cx="581.8181818181819" cy="114.28571428571429" fill="hsla(154, 55%, 60%, 1.00)" stroke="none"></circle><rect width="72.72727272727273" height="114.28571428571429" x="654.5454545454546" y="114.28571428571429" opacity="0.15"></rect><circle r="3.75" cx="654.5454545454546" cy="114.28571428571429" fill="hsla(154, 55%, 60%, 1.00)" stroke="none"></circle><rect width="72.72727272727273" height="114.28571428571429" x="727.2727272727274" y="114.28571428571429" opacity="0.15"></rect><circle r="3.75" cx="727.2727272727274" cy="114.28571428571429" fill="hsla(154, 55%, 60%, 1.00)" stroke="none"></circle><rect width="72.72727272727273" height="114.28571428571429" x="800.0000000000001" y="114.28571428571429" opacity="0.15"></rect><circle r="3.75" cx="800.0000000000001" cy="114.28571428571429" fill="hsla(154, 55%, 60%, 1.00)" stroke="none"></circle><rect width="72.72727272727273" height="114.28571428571429" x="0" y="228.57142857142858" opacity="0.15"></rect><circle r="3.75" cx="0" cy="228.57142857142858" fill="hsla(154, 55%, 60%, 1.00)" stroke="none"></circle><rect width="72.72727272727273" height="114.28571428571429" x="72.72727272727273" y="228.57142857142858" opacity="0.15"></rect><circle r="3.75" cx="72.72727272727273" cy="228.57142857142858" fill="hsla(154, 55%, 60%, 1.00)" stroke="none"></circle><rect width="72.72727272727273" height="114.28571428571429" x="145.45454545454547" y="228.57142857142858" opacity="0.15"></rect><circle r="3.75" cx="145.45454545454547" cy="228.57142857142858" fill="hsla(154, 55%, 60%, 1.00)" stroke="none"></circle><rect width="72.72727272727273" height="114.28571428571429" x="218.1818181818182" y="228.57142857142858" opacity="0.15"></rect><circle r="3.75" cx="218.1818181818182" cy="228.57142857142858" fill="hsla(154, 55%, 60%, 1.00)" stroke="none"></circle><rect width="72.72727272727273" height="114.28571428571429" x="290.90909090909093" y="228.57142857142858" opacity="0.15"></rect><circle r="3.75" cx="290.90909090909093" cy="228.57142857142858" fill="hsla(154, 55%, 60%, 1.00)" stroke="none"></circle><rect width="72.72727272727273" height="114.28571428571429" x="363.6363636363637" y="228.57142857142858" opacity="0.15"></rect><circle r="3.75" cx="363.6363636363637" cy="228.57142857142858" fill="hsla(154, 55%, 60%, 1.00)" stroke="none"></circle><rect width="72.72727272727273" height="114.28571428571429" x="436.36363636363643" y="228.57142857142858" opacity="0.15"></rect><circle r="3.75" cx="436.36363636363643" cy="228.57142857142858" fill="hsla(154, 55%, 60%, 1.00)" stroke="none"></circle><rect width="72.72727272727273" height="114.28571428571429" x="509.0909090909092" y="228.57142857142858" opacity="0.15"></rect><circle r="3.75" cx="509.0909090909092" cy="228.57142857142858" fill="hsla(154, 55%, 60%, 1.00)" stroke="none"></circle><rect width="72.72727272727273" height="114.28571428571429" x="581.8181818181819" y="228.57142857142858" opacity="0.15"></rect><circle r="3.75" cx="581.8181818181819" cy="228.57142857142858" fill="hsla(154, 55%, 60%, 1.00)" stroke="none"></circle><rect width="72.72727272727273" height="114.28571428571429" x="654.5454545454546" y="228.57142857142858" opacity="0.15"></rect><circle r="3.75" cx="654.5454545454546" cy="228.57142857142858" fill="hsla(154, 55%, 60%, 1.00)" stroke="none"></circle><rect width="72.72727272727273" height="114.28571428571429" x="727.2727272727274" y="228.57142857142858" opacity="0.15"></rect><circle r="3.75" cx="727.2727272727274" cy="228.57142857142858" fill="hsla(154, 55%, 60%, 1.00)" stroke="none"></circle><rect width="72.72727272727273" height="114.28571428571429" x="800.0000000000001" y="228.57142857142858" opacity="0.15"></rect><circle r="3.75" cx="800.0000000000001" cy="228.57142857142858" fill="hsla(154, 55%, 60%, 1.00)" stroke="none"></circle><rect width="72.72727272727273" height="114.28571428571429" x="0" y="342.8571428571429" opacity="0.15"></rect><circle r="3.75" cx="0" cy="342.8571428571429" fill="hsla(154, 55%, 60%, 1.00)" stroke="none"></circle><rect width="72.72727272727273" height="114.28571428571429" x="72.72727272727273" y="342.8571428571429" opacity="0.15"></rect><circle r="3.75" cx="72.72727272727273" cy="342.8571428571429" fill="hsla(154, 55%, 60%, 1.00)" stroke="none"></circle><rect width="72.72727272727273" height="114.28571428571429" x="145.45454545454547" y="342.8571428571429" opacity="0.15"></rect><circle r="3.75" cx="145.45454545454547" cy="342.8571428571429" fill="hsla(154, 55%, 60%, 1.00)" stroke="none"></circle><rect width="72.72727272727273" height="114.28571428571429" x="218.1818181818182" y="342.8571428571429" opacity="0.15"></rect><circle r="3.75" cx="218.1818181818182" cy="342.8571428571429" fill="hsla(154, 55%, 60%, 1.00)" stroke="none"></circle><rect width="72.72727272727273" height="114.28571428571429" x="290.90909090909093" y="342.8571428571429" opacity="0.15"></rect><circle r="3.75" cx="290.90909090909093" cy="342.8571428571429" fill="hsla(154, 55%, 60%, 1.00)" stroke="none"></circle><rect width="72.72727272727273" height="114.28571428571429" x="363.6363636363637" y="342.8571428571429" opacity="0.15"></rect><circle r="3.75" cx="363.6363636363637" cy="342.8571428571429" fill="hsla(154, 55%, 60%, 1.00)" stroke="none"></circle><rect width="72.72727272727273" height="114.28571428571429" x="436.36363636363643" y="342.8571428571429" opacity="0.15"></rect><circle r="3.75" cx="436.36363636363643" cy="342.8571428571429" fill="hsla(154, 55%, 60%, 1.00)" stroke="none"></circle><rect width="72.72727272727273" height="114.28571428571429" x="509.0909090909092" y="342.8571428571429" opacity="0.15"></rect><circle r="3.75" cx="509.0909090909092" cy="342.8571428571429" fill="hsla(154, 55%, 60%, 1.00)" stroke="none"></circle><rect width="72.72727272727273" height="114.28571428571429" x="581.8181818181819" y="342.8571428571429" opacity="0.15"></rect><circle r="3.75" cx="581.8181818181819" cy="342.8571428571429" fill="hsla(154, 55%, 60%, 1.00)" stroke="none"></circle><rect width="72.72727272727273" height="114.28571428571429" x="654.5454545454546" y="342.8571428571429" opacity="0.15"></rect><circle r="3.75" cx="654.5454545454546" cy="342.8571428571429" fill="hsla(154, 55%, 60%, 1.00)" stroke="none"></circle><rect width="72.72727272727273" height="114.28571428571429" x="727.2727272727274" y="342.8571428571429" opacity="0.15"></rect><circle r="3.75" cx="727.2727272727274" cy="342.8571428571429" fill="hsla(154, 55%, 60%, 1.00)" stroke="none"></circle><rect width="72.72727272727273" height="114.28571428571429" x="800.0000000000001" y="342.8571428571429" opacity="0.15"></rect><circle r="3.75" cx="800.0000000000001" cy="342.8571428571429" fill="hsla(154, 55%, 60%, 1.00)" stroke="none"></circle><rect width="72.72727272727273" height="114.28571428571429" x="0" y="457.14285714285717" opacity="0.15"></rect><circle r="3.75" cx="0" cy="457.14285714285717" fill="hsla(154, 55%, 60%, 1.00)" stroke="none"></circle><rect width="72.72727272727273" height="114.28571428571429" x="72.72727272727273" y="457.14285714285717" opacity="0.15"></rect><circle r="3.75" cx="72.72727272727273" cy="457.14285714285717" fill="hsla(154, 55%, 60%, 1.00)" stroke="none"></circle><rect width="72.72727272727273" height="114.28571428571429" x="145.45454545454547" y="457.14285714285717" opacity="0.15"></rect><circle r="3.75" cx="145.45454545454547" cy="457.14285714285717" fill="hsla(154, 55%, 60%, 1.00)" stroke="none"></circle><rect width="72.72727272727273" height="114.28571428571429" x="218.1818181818182" y="457.14285714285717" opacity="0.15"></rect><circle r="3.75" cx="218.1818181818182" cy="457.14285714285717" fill="hsla(154, 55%, 60%, 1.00)" stroke="none"></circle><rect width="72.72727272727273" height="114.28571428571429" x="290.90909090909093" y="457.14285714285717" opacity="0.15"></rect><circle r="3.75" cx="290.90909090909093" cy="457.14285714285717" fill="hsla(154, 55%, 60%, 1.00)" stroke="none"></circle><rect width="72.72727272727273" height="114.28571428571429" x="363.6363636363637" y="457.14285714285717" opacity="0.15"></rect><circle r="3.75" cx="363.6363636363637" cy="457.14285714285717" fill="hsla(154, 55%, 60%, 1.00)" stroke="none"></circle><rect width="72.72727272727273" height="114.28571428571429" x="436.36363636363643" y="457.14285714285717" opacity="0.15"></rect><circle r="3.75" cx="436.36363636363643" cy="457.14285714285717" fill="hsla(154, 55%, 60%, 1.00)" stroke="none"></circle><rect width="72.72727272727273" height="114.28571428571429" x="509.0909090909092" y="457.14285714285717" opacity="0.15"></rect><circle r="3.75" cx="509.0909090909092" cy="457.14285714285717" fill="hsla(154, 55%, 60%, 1.00)" stroke="none"></circle><rect width="72.72727272727273" height="114.28571428571429" x="581.8181818181819" y="457.14285714285717" opacity="0.15"></rect><circle r="3.75" cx="581.8181818181819" cy="457.14285714285717" fill="hsla(154, 55%, 60%, 1.00)" stroke="none"></circle><rect width="72.72727272727273" height="114.28571428571429" x="654.5454545454546" y="457.14285714285717" opacity="0.15"></rect><circle r="3.75" cx="654.5454545454546" cy="457.14285714285717" fill="hsla(154, 55%, 60%, 1.00)" stroke="none"></circle><rect width="72.72727272727273" height="114.28571428571429" x="727.2727272727274" y="457.14285714285717" opacity="0.15"></rect><circle r="3.75" cx="727.2727272727274" cy="457.14285714285717" fill="hsla(154, 55%, 60%, 1.00)" stroke="none"></circle><rect width="72.72727272727273" height="114.28571428571429" x="800.0000000000001" y="457.14285714285717" opacity="0.15"></rect><circle r="3.75" cx="800.0000000000001" cy="457.14285714285717" fill="hsla(154, 55%, 60%, 1.00)" stroke="none"></circle><rect width="72.72727272727273" height="114.28571428571429" x="0" y="571.4285714285714" opacity="0.15"></rect><circle r="3.75" cx="0" cy="571.4285714285714" fill="hsla(154, 55%, 60%, 1.00)" stroke="none"></circle><rect width="72.72727272727273" height="114.28571428571429" x="72.72727272727273" y="571.4285714285714" opacity="0.15"></rect><circle r="3.75" cx="72.72727272727273" cy="571.4285714285714" fill="hsla(154, 55%, 60%, 1.00)" stroke="none"></circle><rect width="72.72727272727273" height="114.28571428571429" x="145.45454545454547" y="571.4285714285714" opacity="0.15"></rect><circle r="3.75" cx="145.45454545454547" cy="571.4285714285714" fill="hsla(154, 55%, 60%, 1.00)" stroke="none"></circle><rect width="72.72727272727273" height="114.28571428571429" x="218.1818181818182" y="571.4285714285714" opacity="0.15"></rect><circle r="3.75" cx="218.1818181818182" cy="571.4285714285714" fill="hsla(154, 55%, 60%, 1.00)" stroke="none"></circle><rect width="72.72727272727273" height="114.28571428571429" x="290.90909090909093" y="571.4285714285714" opacity="0.15"></rect><circle r="3.75" cx="290.90909090909093" cy="571.4285714285714" fill="hsla(154, 55%, 60%, 1.00)" stroke="none"></circle><rect width="72.72727272727273" height="114.28571428571429" x="363.6363636363637" y="571.4285714285714" opacity="0.15"></rect><circle r="3.75" cx="363.6363636363637" cy="571.4285714285714" fill="hsla(154, 55%, 60%, 1.00)" stroke="none"></circle><rect width="72.72727272727273" height="114.28571428571429" x="436.36363636363643" y="571.4285714285714" opacity="0.15"></rect><circle r="3.75" cx="436.36363636363643" cy="571.4285714285714" fill="hsla(154, 55%, 60%, 1.00)" stroke="none"></circle><rect width="72.72727272727273" height="114.28571428571429" x="509.0909090909092" y="571.4285714285714" opacity="0.15"></rect><circle r="3.75" cx="509.0909090909092" cy="571.4285714285714" fill="hsla(154, 55%, 60%, 1.00)" stroke="none"></circle><rect width="72.72727272727273" height="114.28571428571429" x="581.8181818181819" y="571.4285714285714" opacity="0.15"></rect><circle r="3.75" cx="581.8181818181819" cy="571.4285714285714" fill="hsla(154, 55%, 60%, 1.00)" stroke="none"></circle><rect width="72.72727272727273" height="114.28571428571429" x="654.5454545454546" y="571.4285714285714" opacity="0.15"></rect><circle r="3.75" cx="654.5454545454546" cy="571.4285714285714" fill="hsla(154, 55%, 60%, 1.00)" stroke="none"></circle><rect width="72.72727272727273" height="114.28571428571429" x="727.2727272727274" y="571.4285714285714" opacity="0.15"></rect><circle r="3.75" cx="727.2727272727274" cy="571.4285714285714" fill="hsla(154, 55%, 60%, 1.00)" stroke="none"></circle><rect width="72.72727272727273" height="114.28571428571429" x="800.0000000000001" y="571.4285714285714" opacity="0.15"></rect><circle r="3.75" cx="800.0000000000001" cy="571.4285714285714" fill="hsla(154, 55%, 60%, 1.00)" stroke="none"></circle><rect width="72.72727272727273" height="114.28571428571429" x="0" y="685.7142857142858" opacity="0.15"></rect><circle r="3.75" cx="0" cy="685.7142857142858" fill="hsla(154, 55%, 60%, 1.00)" stroke="none"></circle><rect width="72.72727272727273" height="114.28571428571429" x="72.72727272727273" y="685.7142857142858" opacity="0.15"></rect><circle r="3.75" cx="72.72727272727273" cy="685.7142857142858" fill="hsla(154, 55%, 60%, 1.00)" stroke="none"></circle><rect width="72.72727272727273" height="114.28571428571429" x="145.45454545454547" y="685.7142857142858" opacity="0.15"></rect><circle r="3.75" cx="145.45454545454547" cy="685.7142857142858" fill="hsla(154, 55%, 60%, 1.00)" stroke="none"></circle><rect width="72.72727272727273" height="114.28571428571429" x="218.1818181818182" y="685.7142857142858" opacity="0.15"></rect><circle r="3.75" cx="218.1818181818182" cy="685.7142857142858" fill="hsla(154, 55%, 60%, 1.00)" stroke="none"></circle><rect width="72.72727272727273" height="114.28571428571429" x="290.90909090909093" y="685.7142857142858" opacity="0.15"></rect><circle r="3.75" cx="290.90909090909093" cy="685.7142857142858" fill="hsla(154, 55%, 60%, 1.00)" stroke="none"></circle><rect width="72.72727272727273" height="114.28571428571429" x="363.6363636363637" y="685.7142857142858" opacity="0.15"></rect><circle r="3.75" cx="363.6363636363637" cy="685.7142857142858" fill="hsla(154, 55%, 60%, 1.00)" stroke="none"></circle><rect width="72.72727272727273" height="114.28571428571429" x="436.36363636363643" y="685.7142857142858" opacity="0.15"></rect><circle r="3.75" cx="436.36363636363643" cy="685.7142857142858" fill="hsla(154, 55%, 60%, 1.00)" stroke="none"></circle><rect width="72.72727272727273" height="114.28571428571429" x="509.0909090909092" y="685.7142857142858" opacity="0.15"></rect><circle r="3.75" cx="509.0909090909092" cy="685.7142857142858" fill="hsla(154, 55%, 60%, 1.00)" stroke="none"></circle><rect width="72.72727272727273" height="114.28571428571429" x="581.8181818181819" y="685.7142857142858" opacity="0.15"></rect><circle r="3.75" cx="581.8181818181819" cy="685.7142857142858" fill="hsla(154, 55%, 60%, 1.00)" stroke="none"></circle><rect width="72.72727272727273" height="114.28571428571429" x="654.5454545454546" y="685.7142857142858" opacity="0.15"></rect><circle r="3.75" cx="654.5454545454546" cy="685.7142857142858" fill="hsla(154, 55%, 60%, 1.00)" stroke="none"></circle><rect width="72.72727272727273" height="114.28571428571429" x="727.2727272727274" y="685.7142857142858" opacity="0.15"></rect><circle r="3.75" cx="727.2727272727274" cy="685.7142857142858" fill="hsla(154, 55%, 60%, 1.00)" stroke="none"></circle><rect width="72.72727272727273" height="114.28571428571429" x="800.0000000000001" y="685.7142857142858" opacity="0.15"></rect><circle r="3.75" cx="800.0000000000001" cy="685.7142857142858" fill="hsla(154, 55%, 60%, 1.00)" stroke="none"></circle><rect width="72.72727272727273" height="114.28571428571429" x="0" y="800.0000000000001" opacity="0.15"></rect><circle r="3.75" cx="0" cy="800.0000000000001" fill="hsla(154, 55%, 60%, 1.00)" stroke="none"></circle><rect width="72.72727272727273" height="114.28571428571429" x="72.72727272727273" y="800.0000000000001" opacity="0.15"></rect><circle r="3.75" cx="72.72727272727273" cy="800.0000000000001" fill="hsla(154, 55%, 60%, 1.00)" stroke="none"></circle><rect width="72.72727272727273" height="114.28571428571429" x="145.45454545454547" y="800.0000000000001" opacity="0.15"></rect><circle r="3.75" cx="145.45454545454547" cy="800.0000000000001" fill="hsla(154, 55%, 60%, 1.00)" stroke="none"></circle><rect width="72.72727272727273" height="114.28571428571429" x="218.1818181818182" y="800.0000000000001" opacity="0.15"></rect><circle r="3.75" cx="218.1818181818182" cy="800.0000000000001" fill="hsla(154, 55%, 60%, 1.00)" stroke="none"></circle><rect width="72.72727272727273" height="114.28571428571429" x="290.90909090909093" y="800.0000000000001" opacity="0.15"></rect><circle r="3.75" cx="290.90909090909093" cy="800.0000000000001" fill="hsla(154, 55%, 60%, 1.00)" stroke="none"></circle><rect width="72.72727272727273" height="114.28571428571429" x="363.6363636363637" y="800.0000000000001" opacity="0.15"></rect><circle r="3.75" cx="363.6363636363637" cy="800.0000000000001" fill="hsla(154, 55%, 60%, 1.00)" stroke="none"></circle><rect width="72.72727272727273" height="114.28571428571429" x="436.36363636363643" y="800.0000000000001" opacity="0.15"></rect><circle r="3.75" cx="436.36363636363643" cy="800.0000000000001" fill="hsla(154, 55%, 60%, 1.00)" stroke="none"></circle><rect width="72.72727272727273" height="114.28571428571429" x="509.0909090909092" y="800.0000000000001" opacity="0.15"></rect><circle r="3.75" cx="509.0909090909092" cy="800.0000000000001" fill="hsla(154, 55%, 60%, 1.00)" stroke="none"></circle><rect width="72.72727272727273" height="114.28571428571429" x="581.8181818181819" y="800.0000000000001" opacity="0.15"></rect><circle r="3.75" cx="581.8181818181819" cy="800.0000000000001" fill="hsla(154, 55%, 60%, 1.00)" stroke="none"></circle><rect width="72.72727272727273" height="114.28571428571429" x="654.5454545454546" y="800.0000000000001" opacity="0.15"></rect><circle r="3.75" cx="654.5454545454546" cy="800.0000000000001" fill="hsla(154, 55%, 60%, 1.00)" stroke="none"></circle><rect width="72.72727272727273" height="114.28571428571429" x="727.2727272727274" y="800.0000000000001" opacity="0.15"></rect><circle r="3.75" cx="727.2727272727274" cy="800.0000000000001" fill="hsla(154, 55%, 60%, 1.00)" stroke="none"></circle><rect width="72.72727272727273" height="114.28571428571429" x="800.0000000000001" y="800.0000000000001" opacity="0.15"></rect><circle r="3.75" cx="800.0000000000001" cy="800.0000000000001" fill="hsla(154, 55%, 60%, 1.00)" stroke="none"></circle></g></svg>